<?xml version="1.0" encoding="UTF-8"?>
<svg version="1.1" xmlns="http://www.w3.org/2000/svg" width="512" height="512">
<path d="M0 0 C168.96 0 337.92 0 512 0 C512 168.96 512 337.92 512 512 C343.04 512 174.08 512 0 512 C0 343.04 0 174.08 0 0 Z " fill="#FEFAF8" transform="translate(0,0)"/>
<path d="M0 0 C14.83837003 -0.21065146 29.67654103 -0.36914771 44.5161047 -0.46630955 C51.40716096 -0.51263215 58.29728589 -0.57573232 65.18774414 -0.67895508 C71.84019887 -0.77856454 78.49194209 -0.83059193 85.14517403 -0.85389519 C87.68057017 -0.87049687 90.21591471 -0.90291756 92.75089836 -0.95157051 C96.30896188 -1.01712954 99.86305842 -1.02589318 103.42163086 -1.02172852 C104.46460831 -1.054086 105.50758575 -1.08644348 106.58216858 -1.11978149 C112.6512653 -1.04316235 115.64149643 0.00540441 120.00880432 4.32557678 C121.36555303 5.86082819 122.69792842 7.41811077 124 9 C125.14271021 10.27364232 126.28795299 11.54502493 127.4375 12.8125 C129.51924316 15.22654019 131.55884731 17.6729231 133.5859375 20.1328125 C134.03654541 20.67832764 134.48715332 21.22384277 134.95141602 21.78588867 C135.84615648 22.8716141 136.73738409 23.96024577 137.62475586 25.05200195 C139.95220131 27.95168591 139.95220131 27.95168591 143 30 C143 54.75 143 79.5 143 105 C124.85 105 106.7 105 88 105 C88 88.5 88 72 88 55 C64.9 55 41.8 55 18 55 C18 130.24 18 205.48 18 283 C41.1 283 64.2 283 88 283 C88 257.26 88 231.52 88 205 C77.44 205 66.88 205 56 205 C56 187.51 56 170.02 56 152 C84.38 152 112.76 152 142 152 C142.36272731 189.96545823 142.36272731 189.96545823 142.43945312 205.8984375 C142.4928171 216.89166126 142.55548363 227.88426332 142.67895508 238.87695312 C142.76884449 246.8836646 142.82676708 254.88987084 142.84679645 262.89707291 C142.85849973 267.13459288 142.88587182 271.37066787 142.95157051 275.60772324 C143.01300144 279.60218355 143.03143832 283.59461449 143.01796913 287.58950233 C143.02043027 289.04961649 143.03813664 290.50980367 143.07284927 291.96950722 C143.24783731 299.71258211 142.91129471 304.8192904 137.62608337 310.74124146 C136.10778795 312.18618216 134.56787343 313.60901202 133 315 C131.97201837 316.09288913 130.95658306 317.19788531 129.9609375 318.3203125 C129.10757813 319.24585938 128.25421875 320.17140625 127.375 321.125 C123.66561197 325.15584235 120.00996495 329.22591575 116.4375 333.37890625 C115.963125 333.91386719 115.48875 334.44882812 115 335 C114.5674355 335.51794097 114.13487101 336.03588194 113.68919849 336.56951809 C111.533885 338.39472512 110.33636653 338.41782491 107.5353241 338.50880432 C106.1632505 338.56268059 106.1632505 338.56268059 104.76345825 338.61764526 C103.76152435 338.64142242 102.75959045 338.66519958 101.72729492 338.68969727 C100.66979538 338.72547379 99.61229584 338.76125031 98.52275085 338.79811096 C87.39559183 339.14789758 76.26209021 339.29812377 65.13061523 339.43481445 C59.86590467 339.5057417 54.60827399 339.63735302 49.34643555 339.82446289 C1.43291593 341.48932342 1.43291593 341.48932342 -9.85257626 331.82288647 C-13.95491771 327.88982902 -17.18777022 323.37932425 -20.22616577 318.58761597 C-22.39414192 315.42503763 -24.8523695 313.18157433 -27.845047 310.81617737 C-28.55618149 310.21683884 -29.26731598 309.61750031 -30 309 C-30.56218278 308.55939007 -31.12436557 308.11878015 -31.70358419 307.66481841 C-35.41017898 304.45332575 -37.42807727 302.07887209 -37.96189404 297.11623859 C-38.03769901 295.20456355 -38.0759152 293.2911662 -38.08403015 291.37800598 C-38.11541149 290.31936755 -38.14679284 289.26072913 -38.17912513 288.17001075 C-38.27483735 284.62734999 -38.32068692 281.08587459 -38.3659668 277.54223633 C-38.42294649 274.99860594 -38.48245347 272.45503109 -38.54429626 269.91151428 C-38.7165448 262.27500593 -38.82769518 254.6385322 -38.92204902 247.00071028 C-38.94916799 244.83608295 -38.97798665 242.67148489 -39.00737023 240.5068872 C-39.19001221 227.01371566 -39.34873927 213.52046401 -39.44015789 200.02634144 C-39.4616799 196.90305686 -39.48345344 193.77977425 -39.50561523 190.65649414 C-39.5110999 189.88037353 -39.51658456 189.10425291 -39.52223543 188.30461349 C-39.61468088 175.80007389 -39.85442586 163.30297768 -40.15644922 150.80192439 C-40.46529519 137.91031893 -40.63356438 125.02247807 -40.67187816 112.12719363 C-40.69677172 104.90766485 -40.77971451 97.69989161 -41.02023888 90.48404884 C-42.59543725 41.59462783 -42.59543725 41.59462783 -26.36977154 23.63520044 C-19.04482533 16.07171137 -10.9982248 9.34770742 -2.46164066 3.19660014 C-0.85242829 2.04551454 -0.85242829 2.04551454 0 0 Z " fill="#010101" transform="translate(125,87)"/>
<path d="M0 0 C34.98 0 69.96 0 106 0 C106 18.15 106 36.3 106 55 C97.42 55 88.84 55 80 55 C80 130.24 80 205.48 80 283 C88.58 283 97.16 283 106 283 C106 301.15 106 319.3 106 338 C71.02 338 36.04 338 0 338 C0 319.52 0 301.04 0 282 C8.25 282 16.5 282 25 282 C25 207.09 25 132.18 25 55 C16.75 55 8.5 55 0 55 C0 36.85 0 18.7 0 0 Z " fill="#FE840A" transform="translate(318,87)"/>
<path d="M0 0 C23.1 0 46.2 0 70 0 C70 16.17 70 32.34 70 49 C69.67 49 69.34 49 69 49 C69 33.16 69 17.32 69 1 C46.89 1 24.78 1 2 1 C2 75.25 2 149.5 2 226 C24.11 226 46.22 226 69 226 C69 201.25 69 176.5 69 151 C58.44 151 47.88 151 37 151 C37 132.85 37 114.7 37 96 C66.04 96 95.08 96 125 96 C125 146.82 125 197.64 125 250 C124.67 250 124.34 250 124 250 C124 199.51 124 149.02 124 97 C95.62 97 67.24 97 38 97 C38 114.49 38 131.98 38 150 C48.56 150 59.12 150 70 150 C70 175.74 70 201.48 70 228 C46.9 228 23.8 228 0 228 C0 152.76 0 77.52 0 0 Z " fill="#9B9896" transform="translate(143,142)"/>
</svg>
