<?xml version="1.0" encoding="UTF-8"?>
<svg version="1.1" xmlns="http://www.w3.org/2000/svg" width="192" height="192">
<path d="M0 0 C63.36 0 126.72 0 192 0 C192 63.36 192 126.72 192 192 C128.64 192 65.28 192 0 192 C0 128.64 0 65.28 0 0 Z " fill="#FDF9F6" transform="translate(0,0)"/>
<path d="M0 0 C1.43862396 -0.00798363 1.43862396 -0.00798363 2.90631104 -0.01612854 C4.90969728 -0.01187379 6.91325731 0.02406255 8.91552734 0.09106445 C11.96657524 0.18400346 14.99897819 0.15278453 18.05078125 0.10742188 C34.11765043 0.14395263 34.11765043 0.14395263 40.05859375 5.796875 C44.48082579 12.20549984 44.21883372 18.72360377 43.765625 26.24609375 C43.7047168 28.18162109 43.7047168 28.18162109 43.64257812 30.15625 C43.53735834 33.31284355 43.37595502 36.46747935 43.203125 39.62109375 C36.603125 39.62109375 30.003125 39.62109375 23.203125 39.62109375 C23.203125 33.68109375 23.203125 27.74109375 23.203125 21.62109375 C14.623125 21.62109375 6.043125 21.62109375 -2.796875 21.62109375 C-2.796875 50.00109375 -2.796875 78.38109375 -2.796875 107.62109375 C5.783125 107.62109375 14.363125 107.62109375 23.203125 107.62109375 C23.203125 98.05109375 23.203125 88.48109375 23.203125 78.62109375 C19.243125 78.62109375 15.283125 78.62109375 11.203125 78.62109375 C11.203125 72.02109375 11.203125 65.42109375 11.203125 58.62109375 C21.763125 58.62109375 32.323125 58.62109375 43.203125 58.62109375 C43.37132678 66.04066098 43.53149037 73.45325731 43.61712646 80.87307739 C43.65923135 84.32865634 43.71539863 87.78264423 43.80664062 91.23730469 C43.91086592 95.2087832 43.94913391 99.17963142 43.984375 103.15234375 C44.02566528 104.37973267 44.06695557 105.60712158 44.10949707 106.8717041 C44.11389885 115.32634521 44.11389885 115.32634521 41.43920898 119.12866211 C39.44829838 121.10742066 37.37279264 122.84555961 35.203125 124.62109375 C34.543125 125.61109375 33.883125 126.60109375 33.203125 127.62109375 C31.37968445 128.06933594 31.37968445 128.06933594 29.14331055 128.16796875 C28.30450851 128.20970215 27.46570648 128.25143555 26.60148621 128.29443359 C25.6901442 128.31973145 24.77880219 128.3450293 23.83984375 128.37109375 C22.89687943 128.39768066 21.9539151 128.42426758 20.9823761 128.45166016 C18.97761937 128.49761423 16.97262311 128.5339532 14.9675293 128.56152344 C12.93518486 128.60087058 10.9031693 128.66870508 8.87280273 128.76660156 C5.92220383 128.90854316 2.98094138 128.96115415 0.02734375 128.99609375 C-0.86173172 129.0537793 -1.75080719 129.11146484 -2.66682434 129.17089844 C-9.86418758 129.09920155 -14.65292104 125.67362002 -19.57498455 120.73939514 C-26.62440359 112.45361674 -25.66987758 102.25361603 -25.5234375 91.93359375 C-25.53221407 89.74127389 -25.54484695 87.54896644 -25.56112671 85.35668945 C-25.58020541 80.77985228 -25.55274016 76.20633158 -25.49169922 71.62988281 C-25.41760869 65.79403245 -25.46030613 59.96595216 -25.53814125 54.13038635 C-25.58536463 49.60850595 -25.57005968 45.08843599 -25.53647995 40.5664978 C-25.52787454 38.4169317 -25.53821484 36.26719532 -25.56871414 34.11782837 C-25.7718492 15.78364729 -25.7718492 15.78364729 -19.57361794 8.51533604 C-13.77014739 2.70832108 -8.38461098 -0.33695547 0 0 Z " fill="#020202" transform="translate(56.796875,31.37890625)"/>
<path d="M0 0 C13.2 0 26.4 0 40 0 C40 6.6 40 13.2 40 20 C36.7 20 33.4 20 30 20 C30 48.38 30 76.76 30 106 C33.3 106 36.6 106 40 106 C40 112.6 40 119.2 40 126 C26.8 126 13.6 126 0 126 C0 119.4 0 112.8 0 106 C3.3 106 6.6 106 10 106 C10 77.62 10 49.24 10 20 C6.7 20 3.4 20 0 20 C0 13.4 0 6.8 0 0 Z " fill="#FE840A" transform="translate(119,33)"/>
</svg>
