<?xml version="1.0" encoding="UTF-8"?>
<svg version="1.1" xmlns="http://www.w3.org/2000/svg" width="180" height="180">
<path d="M0 0 C59.4 0 118.8 0 180 0 C180 59.4 180 118.8 180 180 C120.6 180 61.2 180 0 180 C0 120.6 0 61.2 0 0 Z " fill="#FEF9F7" transform="translate(0,0)"/>
<path d="M0 0 C1.3479792 0.00056648 1.3479792 0.00056648 2.72319031 0.00114441 C4.5998242 0.01474712 6.47646272 0.05728677 8.35180664 0.12817383 C11.21429816 0.23101049 14.06366319 0.23076078 16.92773438 0.21679688 C18.76441758 0.24268059 20.60103006 0.2743775 22.4375 0.3125 C23.70488762 0.31477348 23.70488762 0.31477348 24.99787903 0.3170929 C29.81218041 0.54653543 32.36522139 1.38306804 35.85229492 4.79956055 C39.62216098 9.01304342 41.13792363 11.66946902 41.08203125 17.3984375 C41.07558594 18.56181641 41.06914063 19.72519531 41.0625 20.92382812 C41.04574219 22.13876953 41.02898437 23.35371094 41.01171875 24.60546875 C41.00269531 25.83201172 40.99367187 27.05855469 40.984375 28.32226562 C40.96077979 31.3542496 40.92490842 34.38613348 40.88671875 37.41796875 C34.61671875 37.41796875 28.34671875 37.41796875 21.88671875 37.41796875 C21.88671875 31.80796875 21.88671875 26.19796875 21.88671875 20.41796875 C13.96671875 20.41796875 6.04671875 20.41796875 -2.11328125 20.41796875 C-2.11328125 46.81796875 -2.11328125 73.21796875 -2.11328125 100.41796875 C5.80671875 100.41796875 13.72671875 100.41796875 21.88671875 100.41796875 C21.88671875 91.50796875 21.88671875 82.59796875 21.88671875 73.41796875 C17.92671875 73.41796875 13.96671875 73.41796875 9.88671875 73.41796875 C9.88671875 67.14796875 9.88671875 60.87796875 9.88671875 54.41796875 C20.11671875 54.41796875 30.34671875 54.41796875 40.88671875 54.41796875 C41.11727008 61.91088692 41.31595231 69.39135995 41.43603516 76.88500977 C41.48611166 79.42938063 41.5541966 81.9734668 41.64111328 84.5168457 C42.43430975 108.33606906 42.43430975 108.33606906 37.12109375 115.55859375 C30.22546267 121.26669141 21.83223727 121.10562987 13.27441406 120.90698242 C10.51772389 120.85558072 7.78288854 120.92679399 5.02734375 121.00976562 C3.24345904 121.00608914 1.45957183 120.99525321 -0.32421875 120.9765625 C-1.52949722 121.01770424 -1.52949722 121.01770424 -2.75912476 121.05967712 C-9.19565056 120.77695322 -13.76829044 117.50322516 -18.20583916 113.07586575 C-24.79364697 105.35979207 -23.84087224 95.71944436 -23.70703125 86.10546875 C-23.71513219 84.04384723 -23.72679288 81.98223695 -23.74182129 79.9206543 C-23.75943461 75.61623158 -23.73407164 71.31481313 -23.67773438 67.01074219 C-23.60934413 61.52140715 -23.64875578 56.03911082 -23.72060394 50.55003357 C-23.76418801 46.29760687 -23.75006991 42.04682102 -23.71907043 37.79434204 C-23.71112518 35.77234032 -23.72067828 33.75018445 -23.74882507 31.72836304 C-23.9363392 14.47760274 -23.9363392 14.47760274 -18.22239208 7.75290394 C-12.83868443 2.36338021 -7.70268711 -0.36885662 0 0 Z " fill="#040404" transform="translate(53.11328125,29.58203125)"/>
<path d="M0 0 C12.21 0 24.42 0 37 0 C37 6.27 37 12.54 37 19 C34.03 19 31.06 19 28 19 C28 45.4 28 71.8 28 99 C30.97 99 33.94 99 37 99 C37 105.27 37 111.54 37 118 C24.79 118 12.58 118 0 118 C0 111.73 0 105.46 0 99 C2.97 99 5.94 99 9 99 C9 72.6 9 46.2 9 19 C6.03 19 3.06 19 0 19 C0 12.73 0 6.46 0 0 Z " fill="#FE8409" transform="translate(112,31)"/>
</svg>
