<?xml version="1.0" encoding="UTF-8"?>
<svg version="1.1" xmlns="http://www.w3.org/2000/svg" width="32" height="32">
<path d="M0 0 C10.56 0 21.12 0 32 0 C32 10.56 32 21.12 32 32 C21.44 32 10.88 32 0 32 C0 21.44 0 10.88 0 0 Z " fill="#FBF5F2" transform="translate(0,0)"/>
<path d="M0 0 C3.5 0.25 3.5 0.25 5.5 2.25 C5.625 4.875 5.625 4.875 5.5 7.25 C4.18 7.25 2.86 7.25 1.5 7.25 C1.5 6.26 1.5 5.27 1.5 4.25 C0.18 4.25 -1.14 4.25 -2.5 4.25 C-2.5 8.87 -2.5 13.49 -2.5 18.25 C-1.18 18.25 0.14 18.25 1.5 18.25 C1.5 16.6 1.5 14.95 1.5 13.25 C0.84 13.25 0.18 13.25 -0.5 13.25 C-0.5 12.26 -0.5 11.27 -0.5 10.25 C1.48 10.25 3.46 10.25 5.5 10.25 C5.55395478 11.87463842 5.59277195 13.49978541 5.625 15.125 C5.64820313 16.02992187 5.67140625 16.93484375 5.6953125 17.8671875 C5.5 20.25 5.5 20.25 3.5 22.25 C0 22.5 0 22.5 -3.5 22.25 C-5.86568222 19.88431778 -5.75571704 19.39767774 -5.765625 16.1875 C-5.76820313 15.39085937 -5.77078125 14.59421875 -5.7734375 13.7734375 C-5.76570312 12.94070312 -5.75796875 12.10796875 -5.75 11.25 C-5.75773438 10.41726563 -5.76546875 9.58453125 -5.7734375 8.7265625 C-5.77085937 7.92992187 -5.76828125 7.13328125 -5.765625 6.3125 C-5.76336914 5.58160156 -5.76111328 4.85070312 -5.75878906 4.09765625 C-5.23417658 0.35212108 -3.50303342 0.25021667 0 0 Z " fill="#171716" transform="translate(11.5,4.75)"/>
<path d="M0 0 C1.98 0 3.96 0 6 0 C6 6.6 6 13.2 6 20 C4.02 20 2.04 20 0 20 C0 13.4 0 6.8 0 0 Z " fill="#FE8E1E" transform="translate(20,6)"/>
</svg>
