<?xml version="1.0" encoding="UTF-8"?>
<svg version="1.1" xmlns="http://www.w3.org/2000/svg" width="327" height="330">
<path d="M0 0 C2.4631436 0.0407988 4.92655548 0.06749833 7.38999939 0.08110046 C12.47816044 0.14288704 17.545142 0.31228781 22.62670898 0.57739258 C29.11970583 0.91552009 35.59881418 1.05976384 42.09966373 1.13592243 C48.35994014 1.21601385 54.61688378 1.38363213 60.875 1.5625 C62.05074144 1.59003168 63.22648289 1.61756336 64.43785286 1.64592934 C85.20210456 2.23960731 85.20210456 2.23960731 91.09155273 8.02807617 C92.8368988 10.36857605 92.8368988 10.36857605 94.27734375 12.63671875 C95.38326293 13.92419113 96.508491 15.19532751 97.65234375 16.44921875 C98.20335251 17.11173645 98.75436127 17.77425415 99.32206726 18.45684814 C101.31953225 20.76449605 101.31953225 20.76449605 103.99983215 23.0680542 C108.98975029 27.6306072 112.76893795 31.63872256 113.44700146 38.57995987 C113.58668677 42.32313215 113.49281317 46.03571623 113.3515625 49.77734375 C113.33099669 51.39681666 113.31536199 53.01635892 113.30439758 54.63592529 C113.26277721 58.85951137 113.15509058 63.07880751 113.03265381 67.30072021 C112.89928132 72.38700195 112.84965125 77.47473428 112.78566742 82.56227112 C112.67967687 90.2567195 112.46875018 97.94179349 112.27734375 105.63671875 C94.12734375 105.63671875 75.97734375 105.63671875 57.27734375 105.63671875 C57.27734375 89.79671875 57.27734375 73.95671875 57.27734375 57.63671875 C35.49734375 57.63671875 13.71734375 57.63671875 -8.72265625 57.63671875 C-8.72265625 130.56671875 -8.72265625 203.49671875 -8.72265625 278.63671875 C13.05734375 278.63671875 34.83734375 278.63671875 57.27734375 278.63671875 C57.27734375 254.21671875 57.27734375 229.79671875 57.27734375 204.63671875 C47.04734375 204.63671875 36.81734375 204.63671875 26.27734375 204.63671875 C26.27734375 187.14671875 26.27734375 169.65671875 26.27734375 151.63671875 C54.65734375 151.63671875 83.03734375 151.63671875 112.27734375 151.63671875 C112.88188926 188.60803547 112.88188926 188.60803547 113.00976562 204.17578125 C113.09856068 214.89921444 113.20257704 225.62087181 113.40893555 236.34277344 C113.55920095 244.15398327 113.65539025 251.96374443 113.68867117 259.77635956 C113.70810709 263.90794935 113.75322364 268.03539794 113.8632946 272.16564941 C114.59239286 300.61246166 114.59239286 300.61246166 107.06149387 309.40719604 C104.53933159 311.8937138 101.91955596 314.11505228 99.08032417 316.22987366 C96.39585527 318.32453417 94.30974388 320.7475985 92.08984375 323.32421875 C91.43628906 324.04996094 90.78273437 324.77570313 90.109375 325.5234375 C88.18440633 327.60336358 88.18440633 327.60336358 86.82048035 330.20852661 C82.9003291 333.95149522 79.00200596 333.49067789 73.75512695 333.60107422 C72.68279312 333.64196167 71.61045929 333.68284912 70.50563049 333.72497559 C66.94660129 333.84926066 63.38858005 333.93188036 59.828125 334.00390625 C58.60528494 334.03052464 57.38244488 334.05714302 56.12254906 334.08456802 C50.29903126 334.20454202 44.47592125 334.3006578 38.65151626 334.36467826 C32.64604538 334.4320334 26.65179295 334.56592445 20.6496582 334.79736328 C-27.81393534 336.62629508 -27.81393534 336.62629508 -40.56073093 325.52726173 C-45.2166906 321.04350224 -49.09156961 316.02544561 -52.5584259 310.58303833 C-54.50765912 307.92940952 -55.69687618 306.91455822 -58.2910099 305.10977364 C-61.32263002 302.53394023 -62.25477762 300.82598251 -62.67896366 296.87041855 C-62.7523802 294.95514748 -62.78778402 293.03819093 -62.79322815 291.121521 C-62.82319836 290.06232586 -62.85316857 289.00313073 -62.88404697 287.91183877 C-62.97520444 284.36136184 -63.01627408 280.81213119 -63.05688477 277.26074219 C-63.11057944 274.71401662 -63.16684155 272.16734409 -63.22547913 269.62072754 C-63.38838142 261.97040805 -63.49025241 254.32017771 -63.57656732 246.66865766 C-63.60150808 244.50082421 -63.62830823 242.33302203 -63.65578341 240.16521931 C-63.82693496 226.65763346 -63.97644384 213.15000956 -64.0591898 199.64156723 C-64.07867338 196.51397284 -64.09836411 193.38637991 -64.1184082 190.25878906 C-64.12584827 189.09297296 -64.12584827 189.09297296 -64.13343864 187.90360501 C-64.21724088 175.37863044 -64.44126525 162.86035586 -64.72479988 150.33847305 C-65.01461941 137.43106927 -65.17205513 124.52705169 -65.20635742 111.61640573 C-65.22879511 104.38634347 -65.3061972 97.16670548 -65.53143501 89.93987274 C-67.03359424 39.89872478 -67.03359424 39.89872478 -50.71594048 21.53320408 C-35.89011626 6.21189087 -21.56674558 -1.4469148 0 0 Z " fill="#000000" transform="translate(61.72265625,-2.63671875)"/>
<path d="M0 0 C0.75863563 0.00829614 1.51727125 0.01659227 2.29889584 0.02513981 C3.60094463 0.03569904 3.60094463 0.03569904 4.92929745 0.0464716 C6.36859364 0.06589062 6.36859364 0.06589062 7.83696651 0.08570194 C9.34411221 0.10011326 9.34411221 0.10011326 10.88170528 0.11481571 C14.22029503 0.1479356 17.55875915 0.18821816 20.89726925 0.22852421 C23.20512091 0.25281264 25.51297729 0.27665682 27.82083797 0.30007267 C33.90858468 0.36304067 39.99624839 0.43207107 46.08391476 0.50232792 C53.38091076 0.58529425 60.67798729 0.66079499 67.97505093 0.73753452 C79.07289422 0.8550872 90.17059193 0.98217345 101.268363 1.10743046 C101.268363 18.92743046 101.268363 36.74743046 101.268363 55.10743046 C93.348363 55.43743046 85.428363 55.76743046 77.268363 56.10743046 C76.938363 128.70743046 76.608363 201.30743046 76.268363 276.10743046 C84.518363 276.10743046 92.768363 276.10743046 101.268363 276.10743046 C101.268363 293.92743046 101.268363 311.74743046 101.268363 330.10743046 C66.948363 330.10743046 32.628363 330.10743046 -2.731637 330.10743046 C-2.731637 312.28743046 -2.731637 294.46743046 -2.731637 276.10743046 C5.518363 276.10743046 13.768363 276.10743046 22.268363 276.10743046 C22.268363 203.17743046 22.268363 130.24743046 22.268363 55.10743046 C14.018363 55.10743046 5.768363 55.10743046 -2.731637 55.10743046 C-2.75453896 47.4352744 -2.7744682 39.76323599 -2.78656864 32.09107304 C-2.79161077 29.47876427 -2.79844425 26.86645834 -2.80707645 24.25415897 C-2.81914736 20.50862778 -2.82486636 16.76313374 -2.82929325 13.01758671 C-2.83445454 11.84156391 -2.83961582 10.66554111 -2.84493351 9.45388126 C-2.84504681 7.83231365 -2.84504681 7.83231365 -2.84516239 6.1779871 C-2.847383 5.22090351 -2.84960361 4.26381992 -2.85189152 3.2777338 C-2.70623301 0.64894983 -2.64296024 0.16396879 0 0 Z " fill="#FD8409" transform="translate(224.7316370010376,-0.10743045806884766)"/>
<path d="M0 0 C1.73841031 0.01496857 3.47677634 0.03565251 5.21507263 0.06056213 C6.63443619 0.07497345 6.63443619 0.07497345 8.08247375 0.0896759 C11.22627409 0.12279297 14.36994091 0.16307659 17.51365662 0.2033844 C19.68698651 0.22767311 21.86032141 0.25151728 24.03366089 0.27493286 C29.76630847 0.33789811 35.49886784 0.40692929 41.23143005 0.47718811 C47.0761156 0.54775949 52.9208639 0.61264335 58.76560974 0.67799377 C70.24289225 0.80716637 81.72008966 0.94274187 93.19725037 1.08229065 C93.19725037 1.41229065 93.19725037 1.74229065 93.19725037 2.08229065 C92.02405243 2.09259811 90.85085449 2.10290558 89.6421051 2.11352539 C78.605566 2.21112648 67.56908496 2.31384774 56.53264046 2.42162991 C50.85820106 2.47688074 45.18375654 2.53030419 39.50926208 2.5796051 C34.03683242 2.62721679 28.56446688 2.67955842 23.09211349 2.7352314 C21.00046757 2.75566946 18.90880405 2.7743801 16.81712723 2.79136467 C13.89575568 2.81537658 10.97450605 2.8454355 8.0532074 2.87696838 C7.18142853 2.88272385 6.30964966 2.88847931 5.41145325 2.89440918 C1.16929243 2.82904176 1.16929243 2.82904176 -2.80274963 4.08229065 C-3.13274963 20.91229065 -3.46274963 37.74229065 -3.80274963 55.08229065 C-4.13274963 55.08229065 -4.46274963 55.08229065 -4.80274963 55.08229065 C-4.82801568 47.41017863 -4.84558086 39.73807725 -4.85768127 32.06593323 C-4.8627234 29.45362446 -4.86955689 26.84131853 -4.87818909 24.22901917 C-4.89025999 20.48348797 -4.89597899 16.73799393 -4.90040588 12.9924469 C-4.90556717 11.8164241 -4.91072845 10.64040131 -4.91604614 9.42874146 C-4.91615944 7.80717384 -4.91615944 7.80717384 -4.91627502 6.15284729 C-4.91849564 5.1957637 -4.92071625 4.23868011 -4.92300415 3.25259399 C-4.71333968 -0.53134286 -3.98030975 0.08613301 0 0 Z " fill="#F48D21" transform="translate(226.80274963378906,-0.0822906494140625)"/>
</svg>
